<svg width="48" height="48" viewBox="0 0 48 48" fill="none" xmlns="http://www.w3.org/2000/svg">
<path fill-rule="evenodd" clip-rule="evenodd" d="M24 45C35.598 45 45 35.598 45 24C45 12.402 35.598 3 24 3C12.402 3 3 12.402 3 24C3 35.598 12.402 45 24 45Z" fill="#2BDE73"/>
<path d="M13.5111 24.6926C13.5111 27.4263 14.5971 30.0481 16.5301 31.9811C18.4631 33.9141 21.0848 35 23.8185 35C26.5522 35 29.1739 33.9141 31.107 31.9811C33.04 30.0481 34.1259 27.4263 34.1259 24.6926H13.5111Z" stroke="white" stroke-width="2.5" stroke-linecap="round" stroke-linejoin="round"/>
<path d="M15.6407 21.2C15.7917 20.0985 16.3365 19.0889 17.1743 18.3581C18.0122 17.6272 19.0863 17.2245 20.1982 17.2245C21.31 17.2245 22.3842 17.6272 23.222 18.3581C24.0598 19.0889 24.6046 20.0985 24.7556 21.2" stroke="white" stroke-width="2.5" stroke-linecap="round" stroke-linejoin="round"/>
<path d="M21.774 16.6851C22.3925 15.9856 23.1532 15.4261 24.0052 15.0441C24.8573 14.6622 25.7811 14.4666 26.7148 14.4703C27.5946 14.4703 28.4656 14.6449 29.2773 14.9841C30.0891 15.3234 30.8254 15.8204 31.4435 16.4465C32.0616 17.0725 32.5493 17.8151 32.8781 18.6311C33.207 19.4471 33.3705 20.3203 33.3592 21.2" stroke="white" stroke-width="2.5" stroke-linecap="round" stroke-linejoin="round"/>
<path d="M23.9889 18.7296C24.6535 18.1643 25.5017 17.8614 26.3741 17.8778C27.3536 17.8775 28.2942 18.2607 28.9947 18.9453C29.6953 19.6299 30.1 20.5615 30.1222 21.5407" stroke="white" stroke-width="2.5" stroke-linecap="round" stroke-linejoin="round"/>
<path d="M18.7926 16.9407L13.5963 12" stroke="white" stroke-width="2.5" stroke-linecap="round" stroke-linejoin="round"/>
<path d="M15.9815 19.4963L13 16.6852" stroke="white" stroke-width="2.5" stroke-linecap="round" stroke-linejoin="round"/>
</svg>
